<!--?xml version="1.0" encoding="utf-8"?-->
<!-- Generator: Adobe Illustrator 22.1.0, SVG Export Plug-In . SVG Version: 6.00 Build 0)  -->
<svg version="1.1" id="_x34_" xmlns="http://www.w3.org/2000/svg" xmlns:xlink="http://www.w3.org/1999/xlink" x="0px" y="0px" viewBox="0 0 800 788.3" style="width: 379px;" xml:space="preserve">
<style type="text/css">
	.stblack{fill:#000000;}
	.st0{fill:#FFFFFF;}
</style>
<g>
	<path class="st0" d="M134.5,267.6c0,0,14-93.8,67.2-137.1s144.1-47.6,144.1-47.6s26.6-21,53.2-29.4c26.6-8.4,103.6-7,170.7,25.2
		s96.6,70,112,99.4c15.4,29.4,18.2,86.8,18.2,86.8l1.4,11.2c0,0,29.4,1.4,49,33.6c19.6,32.2,35,85.4,28,131.5
		s-25.2,106.4-65.8,121.8c0,23.8-36.4,86.8-86.8,114.8c-50.4,28-92.4,25.2-92.4,25.2l1.4,65.8l-65.8-56c0,0-29.4,12.6-98,12.6
		s-119-2.8-200.1-77c-58.8-53.2-50.4-128.8-50.4-128.8s-51.8-23.8-70-86.8c-18.2-63,26.6-121.8,42-134.3
		C107.9,285.8,134.5,267.6,134.5,267.6z"></path>
	<path class="stblack" d="M66.6,272.6c4.4-4.5,9-9,13.3-12.9c2.2-1.9,4.3-3.8,6.4-5.3c1-0.8,2-1.6,3-2.2c1-0.7,1.9-1.3,2.8-1.8
		c2.2-1.5,4.6-2.1,6.5-2.2c1.9,0,3.5,0.6,4.1,1.8s0.4,2.9-0.5,4.5c-1,1.6-2.6,3.2-4.6,4.5c-4.8,3-9.6,6.3-14,9.6
		c-1.1,0.8-2.2,1.7-3.2,2.5c-1,0.8-2,1.7-3,2.5c-1.9,1.6-3.6,3.2-5.1,4.7c-21.5,22.2-36.1,51.2-41.3,81.7
		c-2.6,15.2-2.9,30.9-0.6,46.1c2.3,15.2,7.2,30,14.8,43.2c2.4,4.2,6,9,10.3,13.5c4.3,4.6,9.4,8.9,14.6,12.4c1.1,0.8,2.2,1.6,3,2.5
		c0.4,0.4,0.8,0.9,1.2,1.4c0.4,0.4,0.7,0.9,1,1.3c1.1,1.8,1.5,3.7,0.8,5.2c-0.7,1.5-2.5,2.3-4.8,2.3c-0.6,0-1.2,0-1.9-0.1
		c-0.6-0.1-1.3-0.3-2-0.5c-1.3-0.5-2.8-1.1-4.1-2.1c-4.2-2.8-9.1-7.3-13.6-12.8c-4.6-5.5-8.8-11.9-12.6-18.4
		c-8.2-14.4-13.3-30.3-15.6-46.6c-2.3-16.2-1.9-32.8,1-48.9c2.9-16.1,8.2-31.7,15.6-46.2C45.6,297.6,55.1,284.2,66.6,272.6z"></path>
	<path class="stblack" d="M263.3,66.1c12.4-2.5,25.2-5.2,33.5-5.9c1.1-0.1,2.2-0.1,3.1,0l1,9.6c-3.7-0.2-6.6-1.8-6.9-4c-0.3-2.2,2.1-4.4,5.7-5.6
		l1,9.6c-0.9,0.3-1.9,0.5-3,0.6c-11.7,1-24.3,1.8-32.8,3.5c-7.8,1.6-15.6,3.5-23.2,5.7c-1.9,0.6-3.8,1.2-5.7,1.8
		c-1.9,0.6-3.8,1.2-5.7,1.9l-5.6,2l-5.5,2.3c-0.9,0.4-1.8,0.7-2.8,1.1l-2.7,1.2c-1.8,0.8-3.6,1.6-5.4,2.5c-3.5,1.8-7.1,3.6-10.5,5.6
		c-3.5,1.9-6.8,4.1-10.1,6.3c-1.7,1.1-3.2,2.3-4.8,3.4c-1.6,1.1-3.2,2.3-4.7,3.6c-24.9,19.4-43,47-52.1,77.1
		c-1.5,4.8-2.8,10.8-3.6,17.4c-0.2,1.6-0.4,3.3-0.7,5c-0.2,1.7-0.3,3.4-0.4,5.1c-0.4,3.4-0.4,6.8-0.7,10.2c0,0.7-0.1,1.4-0.3,2.1
		c-0.1,0.7-0.2,1.4-0.4,2c-0.3,1.3-0.8,2.4-1.3,3.4c-1.1,1.9-2.6,3.2-4.3,3.3c-1.7,0-3.2-1.2-4.3-3.2c-0.5-1-1-2.3-1.3-3.6
		c-0.2-0.7-0.3-1.4-0.3-2.2c0-0.7,0-1.5,0-2.3c0.1-1.2,0.2-2.6,0.3-4c0.1-1.4,0.2-2.9,0.5-4.4c0.3-1.5,0.5-3.1,0.8-4.8
		c0.1-0.8,0.3-1.7,0.4-2.5c0.2-0.8,0.4-1.7,0.6-2.5c0.8-3.4,1.6-7,2.6-10.6c0.5-1.8,0.9-3.6,1.5-5.5c0.6-1.8,1.1-3.6,1.7-5.4
		c0.3-1,0.6-2,0.9-3l1-2.9c0.7-2,1.4-3.9,2.1-5.9c1.6-3.8,3.1-7.7,5-11.4c3.5-7.5,7.8-14.7,12.5-21.6l3.6-5.1
		c1.2-1.7,2.6-3.3,3.8-4.9c2.5-3.3,5.4-6.3,8.1-9.5c1.4-1.5,2.9-3,4.4-4.4l2.2-2.2l2.3-2.1l4.7-4.2l4.9-3.9c1.6-1.3,3.3-2.5,5-3.7
		c1.7-1.2,3.4-2.5,5.1-3.6c3.5-2.2,7-4.5,10.6-6.5c3.6-2.1,7.3-3.9,11-5.8c1.9-0.9,3.8-1.7,5.6-2.6l2.8-1.3c0.9-0.4,1.9-0.8,2.9-1.2
		l5.8-2.3l5.8-2.1c1.9-0.7,3.9-1.3,5.9-1.9c2-0.6,3.9-1.3,5.9-1.8C247.3,69.6,255.3,67.6,263.3,66.1z"></path>
	<path class="stblack" d="M670.6,175.2c3.4,9.6,6.3,19.5,8.2,28.8c1,4.6,1.5,9.1,2.1,13.3c0.2,2.1,0.3,4.1,0.4,6c0.1,0.9,0.1,1.9,0.2,2.8
		c0,0.9,0,1.8,0,2.6c0,2.1-0.2,4.2-0.5,6c-0.3,1.8-0.9,3.5-1.4,4.8c-1.1,2.7-2.5,4.2-4,4.1c-1.4-0.2-2.5-2-3.3-4.6
		c-0.4-1.3-0.6-2.9-0.8-4.7c-0.2-1.7-0.3-3.6-0.3-5.6c0-9.1-0.7-18.6-2.1-27.4c-1.5-8.8-3.7-16.9-5.9-23.3
		c-8.7-23.7-22.5-45.3-39.9-63.6C605.7,96,584.9,81,562.7,68.7c-11.1-6.1-22.7-11.5-34.5-16.3c-11.8-4.8-23.8-9-36-12.6
		c-12.2-3.6-24.6-6.3-37.1-8.1c-12.5-1.8-25.2-2.9-37.7-2.6c-2,0-4.1,0.2-6.3,0.3c-2.2,0.2-4.5,0.2-6.9,0.5
		c-4.7,0.7-9.8,1.2-14.9,2.4c-1.3,0.3-2.6,0.5-3.9,0.8c-0.6,0.1-1.3,0.3-2,0.4l-1.9,0.5c-2.6,0.7-5.2,1.4-7.8,2.1
		c-2.6,0.8-5.1,1.8-7.7,2.6c-1.3,0.5-2.6,0.8-3.8,1.3c-1.2,0.5-2.5,1-3.7,1.5c-2.1,0.9-4.3,1.5-6.2,2.1c-1.9,0.6-3.7,1.1-5.4,1.3
		c-3.2,0.4-5.7,0-6.5-1.5c-0.8-1.5,0.2-3.7,2.7-6.1c1.2-1.2,2.8-2.5,4.6-3.8c1.8-1.2,4-2.2,6.4-3.2c0.9-0.4,1.9-0.8,2.9-1.1
		c1-0.4,2-0.8,3.1-1.1c2.1-0.6,4.4-1.3,6.8-2c1.2-0.3,2.4-0.7,3.6-1c1.3-0.3,2.5-0.5,3.8-0.8c2.6-0.5,5.3-1.2,8-1.6
		c11-1.8,23.2-2.7,35.1-3c13.2-0.2,26.3,0.9,39.3,2.9c13,2,25.8,4.8,38.3,8.6c12.5,3.7,24.8,8.1,36.9,13.1c12,5,23.8,10.6,35.3,16.9
		c22.8,12.7,44.2,28.3,62.3,47.4C647.2,127.7,661.6,150.4,670.6,175.2z"></path>
	<path class="stblack" d="M350.9,699.7c17-0.1,34.2-2.9,45-4.2c6.9-0.9,12.9,0.5,13.3,3.3c0.4,2.8-5,5.9-12.1,6.8c-16.3,2.1-34.1,2-46.2,2
		c-2.8,0.1-5.6,0-8.4,0c-2.8-0.1-5.6,0-8.4-0.2c-5.6-0.3-11.2-0.4-16.8-1c-11.2-0.8-22.3-2.4-33.4-4.3l-8.3-1.6l-2.1-0.4l-2.1-0.5
		l-4.1-1c-5.5-1.2-10.9-2.8-16.3-4.4c-10.7-3.4-21.4-7.1-31.6-11.7c-20.7-9-40-21.2-57.5-35.4c-2.2-1.8-4.3-3.7-6.4-5.6l-3.2-2.8
		c-1-1-2-2-3.1-2.9l-6.1-5.9l-5.8-6.2l-2.9-3.1l-2.7-3.3l-5.4-6.6l-5-6.9c-0.8-1.1-1.7-2.3-2.5-3.4l-2.3-3.6
		c-1.9-3.1-4.3-6.3-6.4-10.1c-2.2-3.7-4.7-7.6-6.8-11.9c-1.1-2.1-2.2-4.3-3.4-6.5c-1-2.3-2-4.5-3-6.8c-2.1-4.5-3.6-9.3-5.2-14
		c-0.3-1-0.6-2-0.8-3c-0.2-1-0.3-2-0.4-2.9c-0.2-1.9-0.2-3.6,0-5.1c0.4-3,1.4-4.9,3-5.3c1.6-0.4,3.5,0.9,5.2,3.3
		c0.9,1.2,1.7,2.6,2.4,4.2c0.4,0.8,0.7,1.7,1,2.6c0.3,0.9,0.7,1.8,1,2.8c0.5,1.5,1,3.1,1.5,4.8c0.6,1.7,1,3.6,1.7,5.4
		c0.7,1.9,1.4,3.8,2.1,5.8c0.7,2,1.4,4.1,2.4,6.2c1.8,4.1,3.6,8.6,5.9,12.8c1.1,2.1,2.3,4.3,3.4,6.5c1.3,2.1,2.6,4.2,3.9,6.2
		l2.2,3.4c0.8,1.1,1.6,2.2,2.4,3.3l4.8,6.6l5.1,6.3l2.6,3.2l2.7,3l5.5,6l5.8,5.7c1,0.9,1.9,1.9,2.9,2.8l3.1,2.7c2,1.8,4,3.6,6.1,5.4
		c16.8,13.8,35.3,25.7,55.2,34.4c9.9,4.6,20.2,8.2,30.6,11.5c5.2,1.5,10.5,3.1,15.8,4.3l4,1l2,0.5l2,0.4l8,1.6
		c10.8,1.9,21.6,3.6,32.5,4.4c5.4,0.6,10.9,0.7,16.4,1.1c2.7,0.1,5.5,0.1,8.2,0.2C345.4,699.7,348.2,699.8,350.9,699.7z"></path>
	<path class="stblack" d="M671.7,564.5c2.3-4.4,4.3-9,5.6-13.1c1.4-4.2,2.2-7.9,2.8-10.7c0.4-1.8,1.1-3.3,2.1-4.5c1-1.1,2.3-1.9,3.7-1.9
		c1.4,0,2.7,0.9,3.5,2.4c0.8,1.5,1.2,3.7,0.7,6c-1,5.2-3.2,10.1-5.4,14.3c-2.2,4.3-4.4,8-6,11.1c-5.9,11.5-11.8,23-18.7,34.2
		c-6.9,11.1-14.8,21.9-24.4,31.1l-3.6,3.4c-1.2,1.1-2.5,2.2-3.8,3.2c-2.5,2.2-5.2,4.1-7.8,6.2c-5.4,3.8-10.9,7.5-16.7,10.7
		c-11.5,6.5-23.5,11.8-35.7,16.4c-7.7,2.9-18.8,8-29.5,11.3c-4.6,1.5-9.2,0.1-10.2-3.1c-1-3.2,1.9-6.9,6.5-8.4
		c7.2-2.3,19-4.5,29.8-8.6c11.9-4.4,23.6-9.4,34.6-15.5c5.5-3,10.8-6.4,15.9-10c2.5-1.9,5.1-3.7,7.4-5.7l3.6-3l3.4-3.2
		c9-8.6,16.6-18.7,23.4-29.3C659.8,587.2,665.8,575.8,671.7,564.5z"></path>
	<path class="stblack" d="M735.3,493.9c-2.4,6.2-4.8,12.4-7.1,18.1c-2.3,5.7-4.5,10.8-6.5,14.6c-2.5,4.9-6.7,7.6-9.2,6.3c-2.5-1.4-2.3-6.3,0.1-11
		c5.7-10.8,11.9-22.5,15.2-30.9c6.1-15.6,11-31.6,14.7-47.8c3.7-16.3,6.1-32.8,6.9-49.4c0.7-16.6-0.4-33.2-3.8-49.3
		c-3.4-16.1-9.3-31.6-17.7-45.6c-1.3-2.3-3-4.6-4.7-7.2c-1.9-2.5-3.9-5.1-6.2-7.6c-4.5-5.1-9.7-10.2-14.9-14.7c-1.2-1-2.1-2-3-3.1
		c-0.8-1.1-1.5-2.1-2-3.2c-0.9-2.1-1.1-4.1-0.1-5.4c1-1.4,2.9-1.8,5.3-1.4c1.2,0.2,2.5,0.6,3.8,1.3c1.3,0.7,2.6,1.6,3.9,2.7
		c3.9,3.5,8.6,8.4,13,14.3c4.5,5.9,8.9,12.7,12.9,19.5c8.8,15,15,31.6,18.5,48.5c3.5,17,4.5,34.4,3.7,51.5
		c-0.9,17.2-3.5,34.2-7.4,50.9C746.8,461.7,741.7,478.1,735.3,493.9z"></path>
	<path class="stblack" d="M506.1,738.1c3.8,3.2,8.5,5.4,11.1,7.3c1.6,1.3,1.5,4.1-0.3,6.3c-1.7,2.2-4.5,3-6.1,1.7c-3.7-3-7.1-7-9.8-9.3
		c-20.1-16.4-39.2-34.1-57.1-53c-2.8-3-7.8-6.7-11.5-10.9c-1.6-1.8-0.9-5.1,1.6-7.3c2.5-2.2,5.8-2.5,7.4-0.7
		c2.5,2.8,5.3,8.3,9.3,12.5C468.1,703.7,486.6,721.5,506.1,738.1z"></path>
	<path class="stblack" d="M512.8,738.1c0.1,4.1,1.5,8.2,1.6,10.9c0,1.7-2.2,3.1-5,3.2c-2.8,0.1-5.2-1.2-5.2-2.9c-0.1-3.9,0.8-8.1,0.7-10.9l-2.4-63.3
		c-0.1-3.4-1.4-8.2-1.5-12.8c-0.1-2,2.6-3.7,5.9-3.8c3.3-0.1,6.1,1.4,6.1,3.4c0.1,3.1-1.3,8.1-1.2,12.9L512.8,738.1z"></path>
</g>
</svg>
